# xmcd
#
# Track frame offsets: 
#        150
#        13187
#        28634
#        46296
#        62824
#        73100
#        88913
#        104739
#        122729
#        137662
#        153561
#        167253
#        179444
#        194674
#        208734
#        223813
#        238937
#        251803
#        266757
#        279188
#
# Disc length: 3873 seconds
#
# Revision: 0
# Processed by: cddbd v1.5.2PL0 Copyright (c) Steve Scherf et al.
# Submitted via: ExactAudioCopy v0.99pb3
#
DISCID=3b0f1f14
DTITLE=Ella Fitzgerald - At Her Very Best CD One
DYEAR=2008
DGENRE=Blues
TTITLE0=Manhattan
TTITLE1=The Lady is a Tramp
TTITLE2=My Funny Valentine
TTITLE3=I Could Write a book
TTITLE4=Mountain Greenery
TTITLE5=There's a Small Hotel
TTITLE6=Let's Do It
TTITLE7=I Get a Kick Out of You
TTITLE8=Anything Goes
TTITLE9=You're the Top
TTITLE10=Night and Day
TTITLE11=I've Got You Under My Skin
TTITLE12=The Frim Fram Sauce
TTITLE13=Dream a Little Dream of Me
TTITLE14=I've Got a Crush on You
TTITLE15=My One and Only
TTITLE16=Soon
TTITLE17=But Not For Me
TTITLE18=Baby It's Cold Outside
TTITLE19=Flying Home
EXTD=
EXTT0=
EXTT1=
EXTT2=
EXTT3=
EXTT4=
EXTT5=
EXTT6=
EXTT7=
EXTT8=
EXTT9=
EXTT10=
EXTT11=
EXTT12=
EXTT13=
EXTT14=
EXTT15=
EXTT16=
EXTT17=
EXTT18=
EXTT19=
PLAYORDER=
